g _Combined Mesh [Floor]
v -9.000004 0 5.722046E-06
v -13.5 0 4.5
v -13.5 0 5.245209E-06
v -9.000005 0 4.500001
v -9.000004 0 -4.499994
v -13.5 0 4.232232E-07
v -13.5 0 -4.499995
v -9.000005 0 1.049042E-06
v -4.768372E-06 0 -13.49999
v -4.5 0 -9
v -4.499999 0 -13.49999
v -4.768372E-06 0 -8.999999
v 4.499995 0 -13.49999
v 0 0 -9
v 0 0 -13.49999
v 4.499995 0 -8.999999
v -4.768372E-06 0 9.000006
v -4.5 0 13.5
v -4.499999 0 9.000006
v -4.768372E-06 0 13.5
v 4.499995 0 9.000006
v 0 0 13.5
v 0 0 9.000006
v 4.499995 0 13.5
v 13.5 -3 -0.0001430511
v 9.000001 -3 5.405701
v 9.000001 -3 -0.000143528
v 13.5 -3 5.405702
v 13.5 -3 -5.405844
v 9.000001 -3 -1.15402E-07
v 9.000001 -3 -5.405844
v 13.5 -3 6.36394E-07
v 4.499995 -3 -8.999994
v 0 -3 -4.5
v 0 -3 -8.999994
v 4.499995 -3 -4.499999
v -4.768372E-06 -3 -8.999994
v -4.5 -3 -4.5
v -4.499999 -3 -8.999994
v -4.768372E-06 -3 -4.499999
v -4.500005 -3 -4.499994
v -9 -3 4.232232E-07
v -9 -3 -4.499995
v -4.500005 -3 1.049042E-06
v -4.768372E-06 -3 -4.499994
v -4.5 -3 4.232232E-07
v -4.499999 -3 -4.499995
v -4.768372E-06 -3 1.049042E-06
v 4.499995 -3 -4.499994
v 0 -3 4.232232E-07
v 0 -3 -4.499995
v 4.499995 -3 1.049042E-06
v 8.999997 -3 -5.405844
v 4.500001 -3 -1.15402E-07
v 4.500001 -3 -5.405844
v 8.999997 -3 6.36394E-07
v 8.999997 -3 -0.0001430511
v 4.500001 -3 5.405701
v 4.500001 -3 -0.000143528
v 8.999997 -3 5.405702
v 4.499995 -3 5.722046E-06
v 0 -3 4.5
v 0 -3 5.245209E-06
v 4.499995 -3 4.500001
v -4.768372E-06 -3 5.722046E-06
v -4.5 -3 4.5
v -4.499999 -3 5.245209E-06
v -4.768372E-06 -3 4.500001
v -4.500005 -3 5.722046E-06
v -9 -3 4.5
v -9 -3 5.245209E-06
v -4.500005 -3 4.500001
v -4.768372E-06 -3 4.500006
v -4.5 -3 9
v -4.499999 -3 4.500005
v -4.768372E-06 -3 9.000001
v 4.499995 -3 4.500006
v 0 -3 9
v 0 -3 4.500005
v 4.499995 -3 9.000001

vn 0 1 0
vn 0 1 0
vn 0 1 0
vn 0 1 0
vn 0 1 0
vn 0 1 0
vn 0 1 0
vn 0 1 0
vn 0 1 0
vn 0 1 0
vn 0 1 0
vn 0 1 0
vn 0 1 0
vn 0 1 0
vn 0 1 0
vn 0 1 0
vn 0 1 0
vn 0 1 0
vn 0 1 0
vn 0 1 0
vn 0 1 0
vn 0 1 0
vn 0 1 0
vn 0 1 0
vn 0 1 0
vn 0 1 0
vn 0 1 0
vn 0 1 0
vn 0 1 0
vn 0 1 0
vn 0 1 0
vn 0 1 0
vn 0 1 0
vn 0 1 0
vn 0 1 0
vn 0 1 0
vn 0 1 0
vn 0 1 0
vn 0 1 0
vn 0 1 0
vn 0 1 0
vn 0 1 0
vn 0 1 0
vn 0 1 0
vn 0 1 0
vn 0 1 0
vn 0 1 0
vn 0 1 0
vn 0 1 0
vn 0 1 0
vn 0 1 0
vn 0 1 0
vn 0 1 0
vn 0 1 0
vn 0 1 0
vn 0 1 0
vn 0 1 0
vn 0 1 0
vn 0 1 0
vn 0 1 0
vn 0 1 0
vn 0 1 0
vn 0 1 0
vn 0 1 0
vn 0 1 0
vn 0 1 0
vn 0 1 0
vn 0 1 0
vn 0 1 0
vn 0 1 0
vn 0 1 0
vn 0 1 0
vn 0 1 0
vn 0 1 0
vn 0 1 0
vn 0 1 0
vn 0 1 0
vn 0 1 0
vn 0 1 0
vn 0 1 0

vt 0.2661866 0.2661031
vt 0.01134705 0.01126378
vt 0.01134712 0.2661032
vt 0.2661865 0.01126369
vt 0.2661866 0.2661031
vt 0.01134705 0.01126378
vt 0.01134712 0.2661032
vt 0.2661865 0.01126369
vt 0.2661866 0.2661031
vt 0.01134705 0.01126378
vt 0.01134712 0.2661032
vt 0.2661865 0.01126369
vt 0.2661866 0.2661031
vt 0.01134705 0.01126378
vt 0.01134712 0.2661032
vt 0.2661865 0.01126369
vt 0.2661866 0.2661031
vt 0.01134705 0.01126378
vt 0.01134712 0.2661032
vt 0.2661865 0.01126369
vt 0.2661866 0.2661031
vt 0.01134705 0.01126378
vt 0.01134712 0.2661032
vt 0.2661865 0.01126369
vt 0.2661866 0.2661031
vt 0.01134705 0.01126378
vt 0.01134712 0.2661032
vt 0.2661865 0.01126369
vt 0.2661866 0.2661031
vt 0.01134705 0.01126378
vt 0.01134712 0.2661032
vt 0.2661865 0.01126369
vt 0.2661866 0.2661031
vt 0.01134705 0.01126378
vt 0.01134712 0.2661032
vt 0.2661865 0.01126369
vt 0.2661866 0.2661031
vt 0.01134705 0.01126378
vt 0.01134712 0.2661032
vt 0.2661865 0.01126369
vt 0.2661866 0.2661031
vt 0.01134705 0.01126378
vt 0.01134712 0.2661032
vt 0.2661865 0.01126369
vt 0.2661866 0.2661031
vt 0.01134705 0.01126378
vt 0.01134712 0.2661032
vt 0.2661865 0.01126369
vt 0.2661866 0.2661031
vt 0.01134705 0.01126378
vt 0.01134712 0.2661032
vt 0.2661865 0.01126369
vt 0.2661866 0.2661031
vt 0.01134705 0.01126378
vt 0.01134712 0.2661032
vt 0.2661865 0.01126369
vt 0.2661866 0.2661031
vt 0.01134705 0.01126378
vt 0.01134712 0.2661032
vt 0.2661865 0.01126369
vt 0.2661866 0.2661031
vt 0.01134705 0.01126378
vt 0.01134712 0.2661032
vt 0.2661865 0.01126369
vt 0.2661866 0.2661031
vt 0.01134705 0.01126378
vt 0.01134712 0.2661032
vt 0.2661865 0.01126369
vt 0.2661866 0.2661031
vt 0.01134705 0.01126378
vt 0.01134712 0.2661032
vt 0.2661865 0.01126369
vt 0.2661866 0.2661031
vt 0.01134705 0.01126378
vt 0.01134712 0.2661032
vt 0.2661865 0.01126369
vt 0.2661866 0.2661031
vt 0.01134705 0.01126378
vt 0.01134712 0.2661032
vt 0.2661865 0.01126369

f 2/2/2 1/1/1 3/3/3
f 1/1/1 2/2/2 4/4/4
f 6/6/6 5/5/5 7/7/7
f 5/5/5 6/6/6 8/8/8
f 10/10/10 9/9/9 11/11/11
f 9/9/9 10/10/10 12/12/12
f 14/14/14 13/13/13 15/15/15
f 13/13/13 14/14/14 16/16/16
f 18/18/18 17/17/17 19/19/19
f 17/17/17 18/18/18 20/20/20
f 22/22/22 21/21/21 23/23/23
f 21/21/21 22/22/22 24/24/24
f 26/26/26 25/25/25 27/27/27
f 25/25/25 26/26/26 28/28/28
f 30/30/30 29/29/29 31/31/31
f 29/29/29 30/30/30 32/32/32
f 34/34/34 33/33/33 35/35/35
f 33/33/33 34/34/34 36/36/36
f 38/38/38 37/37/37 39/39/39
f 37/37/37 38/38/38 40/40/40
f 42/42/42 41/41/41 43/43/43
f 41/41/41 42/42/42 44/44/44
f 46/46/46 45/45/45 47/47/47
f 45/45/45 46/46/46 48/48/48
f 50/50/50 49/49/49 51/51/51
f 49/49/49 50/50/50 52/52/52
f 54/54/54 53/53/53 55/55/55
f 53/53/53 54/54/54 56/56/56
f 58/58/58 57/57/57 59/59/59
f 57/57/57 58/58/58 60/60/60
f 62/62/62 61/61/61 63/63/63
f 61/61/61 62/62/62 64/64/64
f 66/66/66 65/65/65 67/67/67
f 65/65/65 66/66/66 68/68/68
f 70/70/70 69/69/69 71/71/71
f 69/69/69 70/70/70 72/72/72
f 74/74/74 73/73/73 75/75/75
f 73/73/73 74/74/74 76/76/76
f 78/78/78 77/77/77 79/79/79
f 77/77/77 78/78/78 80/80/80
